Coordinates
version=1
nRows=49
nColumns=12
inDegrees=yes

Units are S.I. units (second, meters, Newtons, ...)
Angles are in degrees

endheader
time	SC_y	SC_z	SC_x	AC_y	AC_z	AC_x	GH_y	GH_z	GH_yy	EL_x	PS_y
       0.0              -17.67          7.173          1.562          53.46         -13.03         -7.791          10.38          71.96          71.79          54.15          147.5
   0.01378              -17.67          7.177          1.564          53.46         -13.03         -7.789          10.37          71.96          71.79          54.15          147.5
   0.02755              -17.68          7.181          1.565          53.46         -13.03         -7.786          10.35          71.96           71.8          54.16          147.5
   0.04133              -17.68          7.185          1.566          53.47         -13.03         -7.784          10.33          71.96           71.8          54.16          147.5
    0.0551              -17.69           7.19          1.567          53.47         -13.03         -7.781          10.31          71.96           71.8          54.17          147.4
   0.06888              -17.69          7.195          1.569          53.47         -13.03         -7.778          10.29          71.96           71.8          54.17          147.4
   0.08266               -17.7            7.2           1.57          53.47         -13.03         -7.775          10.27          71.96          71.81          54.18          147.4
   0.09643              -17.71          7.206          1.572          53.48         -13.03         -7.772          10.25          71.96          71.81          54.18          147.4
    0.1102              -17.71          7.212          1.574          53.48         -13.03         -7.768          10.23          71.96          71.81          54.19          147.4
     0.124              -17.72          7.219          1.576          53.49         -13.03         -7.764           10.2          71.96          71.82           54.2          147.3
    0.1378              -17.73          7.226          1.578          53.49         -13.03          -7.76          10.17          71.97          71.82           54.2          147.3
    0.1515              -17.74          7.233           1.58          53.49         -13.03         -7.756          10.14          71.97          71.83          54.21          147.3
    0.1653              -17.75          7.242          1.582           53.5         -13.03         -7.751          10.11          71.97          71.83          54.22          147.3
    0.1791              -17.76          7.251          1.585           53.5         -13.03         -7.746          10.08          71.97          71.84          54.23          147.2
    0.1929              -17.77           7.26          1.587          53.51         -13.03          -7.74          10.04          71.97          71.84          54.24          147.2
    0.2066              -17.78          7.271           1.59          53.52         -13.03         -7.734          9.997          71.97          71.85          54.25          147.2
    0.2204               -17.8          7.282          1.594          53.52         -13.03         -7.727          9.953          71.98          71.86          54.26          147.1
    0.2342              -17.81          7.294          1.597          53.53         -13.03          -7.72          9.905          71.98          71.86          54.27          147.1
     0.248              -17.83          7.308          1.601          53.54         -13.03         -7.712          9.852          71.98          71.87          54.29          147.1
    0.2617              -17.84          7.322          1.605          53.55         -13.03         -7.704          9.794          71.98          71.88           54.3          147.0
    0.2755              -17.86          7.338           1.61          53.56         -13.03         -7.694           9.73          71.99          71.89          54.32          147.0
    0.2893              -17.89          7.356          1.615          53.57         -13.03         -7.684           9.66          71.99           71.9          54.34          146.9
    0.3031              -17.91          7.376          1.621          53.58         -13.03         -7.673          9.583          71.99          71.91          54.36          146.8
    0.3169              -17.93          7.398          1.627          53.59         -13.03          -7.66          9.497           72.0          71.92          54.38          146.8
    0.3306              -17.96          7.422          1.634          53.61         -13.03         -7.646          9.402           72.0          71.94          54.41          146.7
    0.3444               -18.0          7.449          1.641          53.62         -13.03          -7.63          9.296          72.01          71.95          54.44          146.6
    0.3582              -18.03          7.479           1.65          53.64         -13.03         -7.613          9.177          72.01          71.97          54.47          146.5
     0.372              -18.07          7.513           1.66          53.66         -13.03         -7.593          9.043          72.02          71.99           54.5          146.4
    0.3857              -18.12          7.551          1.671          53.68         -13.03          -7.57          8.892          72.02          72.02          54.54          146.3
    0.3995              -18.17          7.595          1.683          53.71         -13.03         -7.545           8.72          72.03          72.04          54.59          146.1
    0.4133              -18.23          7.645          1.698          53.74         -13.03         -7.516          8.524          72.04          72.07          54.64          146.0
    0.4271               -18.3          7.702          1.714          53.77         -13.03         -7.483          8.299          72.05           72.1           54.7          145.8
    0.4408              -18.38          7.768          1.733          53.81         -13.03         -7.444           8.04          72.06          72.14          54.77          145.6
    0.4546              -18.47          7.844          1.755          53.86         -13.03         -7.399          7.738          72.08          72.19          54.85          145.3
    0.4684              -18.58          7.934           1.78          53.91         -13.03         -7.347          7.385          72.09          72.24          54.94          145.0
    0.4822               -18.7           8.04          1.811          53.98         -13.03         -7.286          6.969          72.11           72.3          55.06          144.7
    0.4959              -18.85          8.165          1.847          54.05         -13.03         -7.212          6.474          72.14          72.38          55.19          144.3
    0.5097              -19.03          8.316           1.89          54.14         -13.03         -7.124          5.881          72.16          72.47          55.34          143.8
    0.5235              -19.25          8.498          1.942          54.25         -13.03         -7.018          5.164           72.2          72.58          55.53          143.2
    0.5373              -19.52          8.721          2.006          54.38         -13.02         -6.889          4.288          72.24          72.71          55.77          142.5
     0.551              -19.85          8.995          2.084          54.55         -13.02         -6.728          3.207          72.29          72.87          56.06          141.6
    0.5648              -20.26          9.338          2.182          54.75         -13.02         -6.529          1.858          72.35          73.07          56.41          140.5
    0.5786              -20.77          9.769          2.306          55.01         -13.02         -6.277         0.1597          72.43          73.33          56.87          139.1
    0.5924              -21.43          10.32          2.463          55.33         -13.02         -5.957           -2.0          72.53          73.65          57.44          137.3
    0.6061              -22.27          11.02          2.664          55.75         -13.02         -5.548         -4.764          72.65          74.07          58.17          135.0
    0.6199              -23.35          11.92          2.922          56.29         -13.02         -5.023          -8.31          72.82           74.6          59.12          132.1
    0.6337              -24.72          13.07          3.252          56.98         -13.01         -4.352         -12.84          73.03          75.28          60.32          128.4
    0.6475              -26.45          14.52          3.666          57.84         -13.01         -3.508         -18.54          73.29          76.14          61.84          123.7
    0.6613              -28.56          16.28          4.171          58.89         -13.01          -2.48         -25.48          73.61          77.18          63.68          118.0
